<svg id="Layer_1" data-name="Layer 1" xmlns="http://www.w3.org/2000/svg" viewBox="0 0 223.44 97.09"><defs><style>.cls-1{fill:#231f20;}</style></defs><title>CulturezVous</title><path class="cls-1" d="M39.33,80.43h-14a1.89,1.89,0,1,1,0-3.78h14a1.89,1.89,0,0,1,0,3.78Z"/><path class="cls-1" d="M58.3,95.34,46.4,67.06a2.56,2.56,0,0,1-.21-1,2.21,2.21,0,0,1,2.24-2.24,2.12,2.12,0,0,1,2.1,1.47L60.4,89.46l9.87-24.15a2.12,2.12,0,0,1,2.1-1.47,2.21,2.21,0,0,1,2.24,2.24,2.56,2.56,0,0,1-.21,1L62.5,95.34a2.27,2.27,0,0,1-4.2,0Z"/><path class="cls-1" d="M107.58,80.22c0,11.48-5.6,16.87-14.7,16.87s-14.7-5.39-14.7-16.87,5.67-16.8,14.7-16.8S107.58,68.74,107.58,80.22Zm-4.55,0c0-8.82-3.71-12.74-10.15-12.74S82.73,71.4,82.73,80.22,86.44,93,92.88,93,103,89.18,103,80.22Z"/><path class="cls-1" d="M118.36,19.74V84.35c0,4.55,1.47,8.47,8.54,8.47s8.54-3.92,8.54-8.47V19.74a2.27,2.27,0,0,1,2.31-2.24,2.2,2.2,0,0,1,2.17,2.24V84.35c0,6.65-2.17,12.74-13,12.74s-13-6.09-13-12.74V19.74a2.21,2.21,0,0,1,2.24-2.24A2.26,2.26,0,0,1,118.36,19.74Z"/><path class="cls-1" d="M152,72c0,7.35,18.41,4.62,18.41,15.82,0,6.37-5.25,9.24-11.9,9.24-5.74,0-10.15-2.73-12-5a2.09,2.09,0,0,1-.49-1.33,2,2,0,0,1,2-2,2.17,2.17,0,0,1,1.55.7,11.85,11.85,0,0,0,8.89,3.43c4,0,7.42-1.33,7.42-5,0-7.21-18.42-4.34-18.42-15.82,0-5.81,4.77-8.47,10.72-8.47,4.76,0,8.47,1.61,10.64,4.48a2.13,2.13,0,0,1,.49,1.33,2,2,0,0,1-2,2,2,2,0,0,1-1.47-.63,9.94,9.94,0,0,0-7.63-2.94C155.11,67.76,152,68.74,152,72Z"/><path class="cls-1" d="M0,26.32C0,9.73,8.26,1.75,21.84,1.75c6.65,0,12.46,2.87,15.75,7.42a2.47,2.47,0,0,1,.49,1.47A2.25,2.25,0,0,1,34,12,15.22,15.22,0,0,0,21.84,6.09C11.06,6.09,4.9,12.6,4.9,26.32c0,14.56,6.16,20.16,16.94,20.16,4.62,0,9.45-1.82,12.18-5.74a2.25,2.25,0,0,1,4.06,1.33,2.15,2.15,0,0,1-.42,1.33c-3.08,4.49-9.38,7.43-15.82,7.43C8.26,50.83,0,43.54,0,26.32Z"/><path class="cls-1" d="M49.42,19.74V38c0,4.55,1.47,8.47,8.54,8.47S66.5,42.56,66.5,38V19.74a2.27,2.27,0,0,1,2.31-2.24A2.2,2.2,0,0,1,71,19.74V38c0,6.65-2.17,12.75-13,12.75s-13-6.1-13-12.75V19.74a2.21,2.21,0,0,1,2.24-2.24A2.26,2.26,0,0,1,49.42,19.74Z"/><path class="cls-1" d="M83.86,2.24v40c0,2.8.91,4,2.8,4a2.11,2.11,0,0,1,0,4.21c-4.69,0-7.28-2.81-7.28-8.2v-40A2.3,2.3,0,0,1,81.62,0,2.26,2.26,0,0,1,83.86,2.24Z"/><path class="cls-1" d="M96.46,10.71A2.3,2.3,0,0,1,98.7,8.47a2.26,2.26,0,0,1,2.24,2.24v7.35h4.55a2.1,2.1,0,1,1,0,4.2h-4.55V41.58c0,3,1.68,4.62,4.06,4.62a2.11,2.11,0,1,1,0,4.21c-5.53,0-8.54-3.72-8.54-8.83V22.26H93.73a2.1,2.1,0,0,1,0-4.2h2.73Z"/><path class="cls-1" d="M152.46,22.82c1.4-3.22,4.9-5.6,9.73-5.6a2.17,2.17,0,1,1,0,4.34c-6.44,0-9.73,4.48-9.73,10.92V48.17a2.24,2.24,0,0,1-4.48,0V19.74a2.24,2.24,0,0,1,4.48,0Z"/><path class="cls-1" d="M181.23,17.08c11.2,0,13.37,8.89,13.37,13.65,0,2,0,4.48-2.8,4.48H171.36c0,6.93,4,11.42,10.57,11.42a12.89,12.89,0,0,0,8.4-3,2,2,0,0,1,1.26-.42,2,2,0,0,1,2,2,2.08,2.08,0,0,1-.77,1.61c-1,1.06-4.69,3.93-10.92,3.93-9.31,0-15.12-5.11-15.12-16.88C166.81,23.1,172.13,17.08,181.23,17.08Zm0,4.06c-6.09,0-9.45,3.92-9.87,10.15h18.83C190.19,26.25,188.44,21.14,181.23,21.14Z"/><path class="cls-1" d="M201.74,18.06h19.18a2.06,2.06,0,0,1,2.1,2.1,2.36,2.36,0,0,1-.49,1.4L205.1,45.5h16.17a2.18,2.18,0,0,1,0,4.35H200.76a2.06,2.06,0,0,1-2.1-2.1,2.12,2.12,0,0,1,.49-1.41l17.64-24.08h-15a2.1,2.1,0,0,1,0-4.2Z"/></svg>