<?xml version="1.0" encoding="utf-8"?>
<!-- Generator: Adobe Illustrator 22.0.1, SVG Export Plug-In . SVG Version: 6.00 Build 0)  -->
<svg version="1.1" id="Layer_1" xmlns="http://www.w3.org/2000/svg" xmlns:xlink="http://www.w3.org/1999/xlink" x="0px" y="0px"
	 viewBox="0 0 512.6 99.5" style="enable-background:new 0 0 512.6 99.5;" xml:space="preserve">
<style type="text/css">
	.st0{fill:#000;}
</style>
<path class="st0" d="M145,99.4c-0.1,0-0.1-0.1,0-0.4s0.2-0.3,0.6-0.3c0.4,0,0.5,0,0.6-0.2c0.3-0.4,0.1-0.7-0.5-0.6
	c-0.4,0.1-0.4,0.1-0.3-0.2c0.3-0.9,0.3-0.9-0.5-1c-0.9-0.2-1.8-0.6-2.4-1.3c-1-1-1.3-2.1-1.2-3.7c0.1-0.9,0.1-1.2,0.4-1.8
	c0.9-1.8,2.9-2.7,5.6-2.6c0.6,0,1.3,0.1,1.7,0.2l0.6,0.1v1v1h-0.4c-0.2,0-0.4-0.1-0.4-0.1c0-0.3-0.7-0.9-1.2-1.1
	c-0.7-0.2-1.9-0.2-2.6,0.1c-1.5,0.7-2.1,2.4-1.7,4.3c0.2,0.9,0.6,1.5,1.2,2.1c0.6,0.6,1.3,0.8,2.2,0.8c1,0,1.7-0.4,2.1-1.1
	c0.3-0.5,0.4-0.6,0.7-0.4c0.1,0.1,0.1,0.3,0,1.1l-0.1,1l-0.5,0.2c-0.3,0.1-1,0.2-1.5,0.2c-0.9,0.1-1,0.1-1,0.3
	c0,0.2,0.1,0.3,0.3,0.3c0.4,0,0.8,0.3,0.9,0.7c0.1,0.4-0.2,1.1-0.7,1.3C146.5,99.4,145.3,99.5,145,99.4L145,99.4z M74.8,99
	c-1-0.3-1.9-0.7-3-1.4L70.9,97l-1.4-0.1c-1.6-0.1-2.1-0.2-3.1-0.9c-2.2-1.5-2.3-5.4-0.2-7.3c1.6-1.4,4.5-1.7,6.6-0.7
	c2.8,1.4,3.1,5.6,0.6,7.8c-0.4,0.3-0.8,0.6-0.8,0.6c-0.2,0,2.5,1.4,3.3,1.7c0.9,0.3,1.9,0.4,2.7,0.1c0.6-0.2,0.7-0.2,0.8,0.2
	c0.1,0.2,0,0.3-0.6,0.5C77.8,99.2,75.9,99.3,74.8,99L74.8,99z M71.3,95.6c2-1,2.4-4,0.7-6c-1.5-1.8-4.1-1.5-5.1,0.5
	C66,92,67,94.9,68.8,95.7C69.6,96,70.6,95.9,71.3,95.6L71.3,95.6z M9.3,96.7c-0.5-0.2-1.1-0.9-2.1-2.4c-1.4-2.3-1.7-2.6-2.1-2.6H4.7
	v1.2c0,2.3,0.3,3,1,3.2c0.2,0,0.3,0.1,0.3,0.3v0.3H1.2v-0.3c0-0.2,0.1-0.3,0.4-0.4c0.2-0.1,0.5-0.2,0.6-0.4c0.2-0.3,0.2-0.4,0.2-4.6
	s0-4.3-0.2-4.6c-0.1-0.2-0.4-0.3-0.6-0.4c-0.3-0.1-0.4-0.2-0.4-0.3c0-0.2,0-0.2,3-0.3c3.2-0.1,3.9,0,4.8,0.4
	c0.8,0.3,1.4,1.4,1.4,2.3c0,1.1-0.9,2.3-2,2.8l-0.6,0.3L9.1,93c1.5,2.1,2,2.7,2.5,2.9c0.4,0.2,0.5,0.7,0.1,0.7
	C11.2,96.9,9.6,96.9,9.3,96.7L9.3,96.7z M6.3,90.6c1.6-0.4,2.1-2.5,0.9-3.5c-0.6-0.5-1.2-0.7-1.9-0.6l-0.6,0.1v4.2h0.6
	C5.6,90.7,6.1,90.7,6.3,90.6L6.3,90.6z M33.5,96.7c-0.6-0.2-1.3-0.6-1.6-1c-0.6-0.7-0.6-1.1-0.7-4c0-3-0.1-3.4-0.7-3.6
	c-0.2-0.1-0.4-0.2-0.4-0.4c0-0.2,0.1-0.2,2-0.2c2,0,2,0,2,0.2s-0.1,0.2-0.2,0.2c-0.1,0-0.3,0.1-0.5,0.3l-0.3,0.3v3
	c0,2.8,0,3,0.2,3.4c0.4,0.6,1.1,1,2,0.9c1-0.1,1.5-0.4,1.9-1.2c0.3-0.6,0.3-0.6,0.3-3.3c0-2.4,0-2.7-0.2-3c-0.1-0.2-0.3-0.3-0.5-0.4
	c-0.2,0-0.3-0.1-0.3-0.3c0-0.2,0.1-0.2,1.6-0.2s1.6,0,1.6,0.2c0,0.1-0.1,0.2-0.3,0.3c-0.5,0.1-0.6,0.4-0.7,3.5l-0.1,3L38.2,95
	c-0.4,0.8-1.1,1.3-2,1.5C35.8,96.9,34.1,96.9,33.5,96.7L33.5,96.7z M79.6,96.7c-0.7-0.2-1.3-0.6-1.6-1c-0.6-0.7-0.6-1.2-0.6-4
	c0-3-0.1-3.3-0.7-3.6c-0.3-0.1-0.4-0.2-0.4-0.4c0-0.2,0.1-0.2,2-0.2c2,0,2,0,2,0.2S80.2,88,80,88c-0.1,0-0.4,0.2-0.5,0.3
	c-0.2,0.3-0.3,0.5-0.3,2.9c-0.1,3,0,3.6,0.6,4.1c1,0.9,3,0.7,3.6-0.4c0.4-0.7,0.4-1.6,0.4-3.9c-0.1-2.5-0.1-2.8-0.8-2.9
	c-0.2,0-0.3-0.1-0.3-0.3c0-0.2,0.1-0.2,1.6-0.2s1.6,0,1.6,0.2c0,0.1-0.1,0.3-0.3,0.3c-0.2,0.1-0.4,0.2-0.4,0.3S85,90,85,91.6l-0.1,3
	l-0.4,0.7c-0.4,0.8-1.1,1.3-2,1.5C81.8,97,80.1,97,79.6,96.7L79.6,96.7z M116.9,96.7c-0.5-0.2-1-0.8-1.9-2.2
	c-1.1-1.8-1.3-1.9-1.5-1.9c-0.3,0-0.3,0-0.3,1.4c0,1.6,0.1,2.1,0.7,2.2c0.3,0.1,0.4,0.1,0.4,0.3v0.3h-4v-0.3c0-0.2,0.1-0.3,0.4-0.3
	c0.7-0.1,0.7-0.4,0.7-4.2v-3.4l-0.3-0.3c-0.2-0.2-0.4-0.3-0.5-0.3s-0.2-0.1-0.2-0.2c0-0.2,0.1-0.2,0.9-0.3c0.5-0.1,1.8-0.1,2.9,0
	c1.8,0,2.1,0.1,2.6,0.3c0.8,0.4,1.2,1.1,1.2,2.1c0,0.9-0.6,1.7-1.6,2.2c-0.3,0.2-0.5,0.3-0.5,0.4s0.6,0.7,1.2,1.5
	c1.1,1.6,1.7,2.3,2,2.3c0.2,0,0.2,0.5,0,0.6C118.6,96.9,117.3,96.8,116.9,96.7L116.9,96.7z M114.7,91.5c0.5-0.2,0.9-0.8,1-1.2
	c0.1-0.6-0.2-1.3-0.6-1.7c-0.4-0.4-0.8-0.5-1.5-0.4l-0.4,0.1v3.4h0.6C114.1,91.7,114.6,91.7,114.7,91.5L114.7,91.5z M167.3,96.7
	c-0.4-0.1-0.7-0.2-0.7-0.2s-0.1-0.5-0.2-1.1l-0.1-1.1h0.3c0.2,0,0.3,0,0.3,0.1c0,0.3,0.8,1.1,1.2,1.3c1.2,0.6,2.7,0,2.7-0.9
	c0-0.6-0.3-1-1.5-1.7c-1.6-0.9-2.2-1.4-2.5-2s-0.4-1.5-0.1-2.2c0.2-0.4,0.9-1.1,1.5-1.4s2.6-0.3,3.4,0l0.6,0.2v2h-0.3
	c-0.3,0-0.4-0.1-0.4-0.3c-0.1-0.5-0.8-1-1.3-1.2c-1.4-0.3-2.6,1-1.7,2c0.2,0.2,0.9,0.7,1.7,1.2c1.5,0.9,2.1,1.5,2.2,2.1
	c0.4,1.4-0.3,2.6-1.7,3.1C170,97,168.3,97,167.3,96.7L167.3,96.7z M12.6,96.5c0-0.2,0.1-0.3,0.3-0.3s0.4-0.1,0.5-0.3
	c0.2-0.3,0.2-0.4,0.2-3.7c0-2.4-0.1-3.5-0.1-3.7C13.3,88.2,13,88,12.8,88c-0.1,0-0.2-0.1-0.2-0.3v-0.3h7.1v2.3h-0.3
	c-0.2,0-0.4-0.1-0.5-0.4c-0.2-0.7-0.6-0.8-2-0.9h-1.2v3.1l1-0.1c1-0.1,1.5-0.3,1.6-0.7c0-0.2,0.1-0.2,0.4-0.2H19v2.9h-0.3
	c-0.3,0-0.3-0.1-0.3-0.3c0-0.5-0.4-0.7-1.5-0.7h-1.1V94c0,1.9,0,1.9,1.4,1.9c1.3,0,2-0.3,2.4-1.1c0.2-0.4,0.6-0.5,0.7-0.2
	c0.1,0.2-0.3,1.5-0.5,1.9l-0.2,0.3h-3.4h-3.4L12.6,96.5L12.6,96.5z M21.7,96.5c0-0.2,0.1-0.3,0.3-0.3c0.6-0.1,0.6-0.3,0.7-3.8
	c0-3.7,0-4-0.7-4.3c-0.3-0.1-0.4-0.2-0.4-0.4v-0.3h2.7c2.9,0.1,3.1,0.1,3.9,0.7c0.9,0.7,1.1,2,0.5,3c-0.5,0.9-1.4,1.3-2.8,1.5
	l-0.7,0.1L25,92.3l-0.2-0.4l0.4-0.1c0.5-0.1,1.1-0.4,1.5-0.8c0.2-0.2,0.3-0.5,0.2-0.9c0-1.1-0.7-1.7-1.8-1.8l-0.6-0.1v3.7
	c0,4,0.1,4.1,0.7,4.2c0.2,0.1,0.3,0.1,0.3,0.3v0.3h-4L21.7,96.5L21.7,96.5z M41.3,96.5c0-0.2,0.1-0.2,0.2-0.2c0.1,0,0.3-0.1,0.5-0.2
	l0.3-0.2v-3.4c0-3.8,0-4.1-0.7-4.3c-0.2-0.1-0.4-0.2-0.4-0.3c0-0.2,0.2-0.2,1.8-0.2c3.4-0.1,4.2,0,4.7,0.2c0.7,0.3,1.1,0.8,1.1,1.6
	c0,0.3,0,0.8,0,0.9c-0.1,0.4-0.7,1-1.3,1.2l-0.6,0.2l0.5,0.1c1.1,0.3,1.9,1.4,1.7,2.6c-0.1,1-0.6,1.6-1.7,2
	c-0.6,0.2-0.7,0.3-3.5,0.3h-2.8L41.3,96.5L41.3,96.5z M46.5,95.6c0.6-0.4,0.8-0.9,0.8-1.7c-0.1-1.2-1-1.8-2.3-1.8h-0.7v1.7
	c0,1.6,0,1.7,0.3,1.9C45,96,46,96,46.5,95.6L46.5,95.6z M46,91.1c0.7-0.3,1.1-0.8,1-1.4c-0.1-0.9-0.8-1.3-2.1-1.3h-0.7v3h0.6
	C45.2,91.3,45.7,91.2,46,91.1L46,91.1z M50.9,96.5c0-0.2,0.1-0.3,0.3-0.3s0.4-0.2,0.6-0.3c0.2-0.3,0.3-0.4,0.3-3.7
	c0-2.7,0-3.4-0.2-3.6c-0.2-0.3-0.5-0.5-0.8-0.5c-0.1,0-0.2-0.1-0.2-0.3c0-0.3,0-0.3,2.1-0.3s2.1,0,2.1,0.2s-0.1,0.2-0.2,0.2
	c-0.1,0-0.4,0.1-0.6,0.3L54,88.5V92v3.5l0.3,0.2c0.2,0.1,0.5,0.2,1.2,0.1c1.1-0.1,1.7-0.3,2-1c0.2-0.4,0.4-0.5,0.7-0.3
	c0.1,0.1,0.1,0.3-0.1,0.9c-0.1,0.5-0.3,1-0.4,1.1l-0.2,0.3h-3.3h-3.3V96.5L50.9,96.5z M59.1,96.5c0-0.2,0.1-0.3,0.4-0.3
	c0.7-0.1,0.7-0.4,0.7-4.1c0-3.1,0-3.3-0.2-3.6c-0.1-0.2-0.4-0.4-0.5-0.4c-0.2,0-0.3-0.1-0.3-0.3c0-0.2,0-0.2,2-0.2s2,0,2,0.2
	s-0.1,0.3-0.3,0.3s-0.4,0.2-0.5,0.4c-0.2,0.3-0.2,0.6-0.2,3.7c0,3.7,0,4,0.7,4.2c0.3,0.1,0.3,0.1,0.3,0.3V97h-4L59.1,96.5L59.1,96.5
	z M87.3,96.5c0-0.2,0.1-0.3,0.4-0.3c0.7-0.1,0.7-0.4,0.7-4.1c0-3.2,0-3.3-0.3-3.7C88,88.2,87.7,88,87.6,88c-0.2,0-0.3-0.1-0.3-0.3
	v-0.3h7v1.2c0,1.1,0,1.2-0.3,1.2c-0.2,0-0.3-0.1-0.4-0.4c-0.1-0.7-0.6-0.9-2-0.9h-1.2L90.3,89c0,0.3-0.1,1-0.1,1.6v1l1-0.1
	c1.1-0.1,1.5-0.3,1.7-0.7c0.1-0.2,0.2-0.3,0.3-0.3h0.3v2.8h-0.3c-0.2,0-0.3-0.1-0.3-0.2c0-0.6-0.6-0.8-1.8-0.8h-1v1.5
	c0.1,1.9,0,1.9,1.4,1.9c1.3,0,1.9-0.3,2.2-1c0.2-0.3,0.3-0.5,0.5-0.5c0.1,0,0.3,0.1,0.3,0.1c0.1,0.2-0.4,1.9-0.6,2.1
	c-0.1,0.1-0.7,0.2-3.5,0.1h-3.3L87.3,96.5L87.3,96.5z M100.3,96.5c0-0.2,0.1-0.3,0.4-0.4c0.2-0.1,0.5-0.3,0.6-0.5
	c0.2-0.3,0.2-0.4,0.2-4.4c0-4.7,0-4.7-0.8-5c-0.3-0.1-0.4-0.2-0.4-0.4v-0.3h8.3v2.8h-0.4c-0.3,0-0.4-0.1-0.4-0.3
	c0-0.4-0.4-1-0.9-1.2c-0.3-0.1-0.9-0.2-1.8-0.2l-1.3-0.1v3.8h1c1.3,0,1.7-0.2,2-0.7c0.2-0.3,0.3-0.4,0.6-0.4h0.3v3.3h-0.4
	c-0.3,0-0.4-0.1-0.4-0.3c-0.2-0.7-0.9-0.9-2.3-0.9h-0.8l0.1,1.9c0.1,2.2,0.2,2.6,0.9,2.8c0.3,0.1,0.4,0.2,0.4,0.4v0.3h-4.8
	L100.3,96.5L100.3,96.5z M119.2,96.5c0-0.2,0.1-0.3,0.2-0.3c0.4,0,0.8-0.7,1.7-2.8c1.2-2.8,2.3-5.6,2.3-5.8c0-0.1,0.1-0.2,0.6-0.2
	h0.6l1.6,3.8c1.7,4.1,2.1,4.8,2.4,4.9c0.2,0.1,0.3,0.2,0.3,0.4c0,0.3,0,0.3-2,0.3h-2v-0.3c0-0.2,0.1-0.3,0.3-0.3
	c0.5-0.1,0.5-0.4,0.2-1.5l-0.3-0.9h-2.8l-0.3,0.8c-0.4,1-0.3,1.6,0.1,1.7c0.2,0,0.3,0.1,0.3,0.3v0.3h-3.1L119.2,96.5L119.2,96.5z
	 M124.6,92.6c0-0.2-0.9-2.4-0.9-2.4c-0.1,0-0.2,0.2-0.3,0.5l-0.5,1.2l-0.3,0.7h1C124.2,92.7,124.6,92.7,124.6,92.6L124.6,92.6z
	 M129.7,96.5c0-0.2,0.1-0.3,0.3-0.3c0.6-0.1,0.7-0.3,0.7-3.9c0.1-3.7,0-4-0.7-4.3c-0.2-0.1-0.4-0.2-0.4-0.3c0-0.2,0.1-0.2,1.3-0.2
	h1.3l0.8,0.9c0.4,0.5,1.5,1.7,2.4,2.7s1.8,2,1.9,2.2l0.3,0.3v-2.5c0-2.7-0.1-3-0.7-3.1c-0.2,0-0.3-0.2-0.3-0.3
	c0-0.2,0.1-0.2,1.6-0.2s1.6,0,1.6,0.2c0,0.1-0.1,0.2-0.3,0.3c-0.1,0-0.4,0.2-0.5,0.3c-0.2,0.3-0.3,0.4-0.3,4.4v4.1h-0.5
	c-0.5,0-0.6,0-0.9-0.5c-0.3-0.4-5.3-6.1-5.5-6.3c0,0,0,1.2,0,2.7c0.1,3.1,0.1,3.4,0.7,3.5c0.3,0.1,0.3,0.1,0.3,0.3v0.3h-3.2
	L129.7,96.5L129.7,96.5z M150.4,96.5c0-0.2,0.1-0.3,0.2-0.3c0.2,0,0.7-0.5,1-1.2c0.4-0.9,2.4-5.7,2.8-6.7l0.3-0.9h0.5h0.5l1.6,3.7
	c0.9,2.1,1.7,3.9,1.8,4.1c0.3,0.5,0.6,0.9,0.9,0.9c0.1,0,0.2,0.1,0.2,0.3v0.3h-4v-0.3c0-0.2,0.1-0.3,0.2-0.3c0.6,0,0.6-0.5,0.2-1.7
	l-0.3-0.8h-2.8l-0.3,0.7c-0.5,1.4-0.4,1.8,0.1,1.8c0.2,0,0.2,0.1,0.2,0.3v0.3h-3.1L150.4,96.5L150.4,96.5z M155.4,91.6
	c-0.2-0.6-0.4-1.2-0.5-1.3c0-0.1-0.3,0.3-0.6,1.1c-0.3,0.7-0.5,1.3-0.5,1.3c0,0.1,0.4,0.1,1,0.1h1L155.4,91.6L155.4,91.6z
	 M160.8,96.5c0-0.2,0.1-0.3,0.3-0.3c0.1,0,0.4-0.1,0.5-0.2c0.2-0.2,0.2-0.5,0.3-3.7c0-1.9,0-3.5,0-3.7c-0.1-0.3-0.5-0.7-0.8-0.7
	c-0.1,0-0.2-0.1-0.2-0.2c0-0.2,0-0.2,2-0.2c1.9,0,2,0,2,0.2c0,0.1-0.1,0.3-0.4,0.4c-0.2,0.1-0.4,0.3-0.5,0.4
	c-0.2,0.4-0.3,3.8-0.2,5.7c0.1,1.3,0.1,1.6,0.3,1.8c0.1,0.1,0.3,0.2,0.4,0.2c0.1,0,0.2,0.1,0.2,0.3v0.3h-4L160.8,96.5L160.8,96.5z
	 M174,96.5c0-0.2,0.1-0.3,0.3-0.3s0.4-0.1,0.5-0.3c0.2-0.3,0.2-0.4,0.2-3.7c0-2.4,0-3.5-0.1-3.7c-0.2-0.3-0.5-0.5-0.7-0.5
	c-0.1,0-0.2-0.1-0.2-0.3v-0.3h7.1v2.3h-0.3c-0.2,0-0.3-0.1-0.4-0.4c-0.2-0.7-0.6-0.8-2-0.9h-1.2v3.1h0.7c1,0,1.5-0.2,1.7-0.6
	c0.1-0.3,0.3-0.3,0.5-0.3h0.3v2.8H180c-0.3,0-0.3-0.1-0.3-0.3c0-0.5-0.4-0.7-1.6-0.7H177v1.5c0,1.9,0,1.9,1.4,1.9
	c1.3,0,2-0.3,2.4-1.1c0.2-0.4,0.6-0.5,0.7-0.2c0.1,0.2-0.3,1.5-0.5,1.9l-0.2,0.3h-3.4H174L174,96.5L174,96.5z M15.8,86.4l-0.3-0.2
	l0.7-1c0.4-0.6,0.8-1,0.9-1c0.4,0,1.7,0.3,1.6,0.3c-0.1,0.2-2.4,2.1-2.5,2.1C16.2,86.7,16,86.6,15.8,86.4L15.8,86.4z M0.8,78.9
	h179.8v1H0.8V78.9L0.8,78.9z M69.3,76.6c-0.9-0.3-1.5-1.1-1.3-2c0.1-0.6,0.5-1,1.1-1.3l0.6-0.2l-0.3-0.2c-0.2-0.1-0.3-0.3-0.3-0.4
	c0-0.2,0.9-1,1.1-1c0.1,0,0-0.2-0.2-0.4c-0.6-1-0.1-2.3,1-2.9c0.6-0.3,0.8-0.3,3-0.2c1.2,0.1,1.3,0.1,1.2,0.3c0,0.1-0.1,0.3-0.1,0.3
	s-0.2,0.1-0.5,0.1h-0.5l0.1,0.6c0.1,1.4-0.9,2.3-2.7,2.4c-0.9,0-1.3,0.2-1,0.4c0.1,0.1,0.7,0.3,1.3,0.4c2,0.6,2.3,0.9,2.2,1.8
	c-0.1,1-0.9,1.8-2.2,2.2C71.2,76.8,69.9,76.8,69.3,76.6L69.3,76.6z M71.9,75.9c1-0.4,1.4-1.3,0.8-1.7c-0.4-0.3-1.9-0.8-2.3-0.7
	c-0.8,0.2-1.6,1.1-1.4,1.7C69.2,76.2,70.6,76.5,71.9,75.9L71.9,75.9z M72.2,71c0.7-0.4,1-1.6,0.5-2.1c-0.7-0.8-1.9,0.1-1.9,1.3
	c0,0.4,0.1,0.5,0.3,0.7C71.5,71.2,71.7,71.2,72.2,71L72.2,71z M76.7,73.5c-0.5-0.1-0.8-0.4-0.8-1c-0.2-1.5,1.2-3.6,2.7-4.3
	c0.8-0.4,2.3-0.4,3.3-0.1c0.1,0,0,0.4-0.2,1.2c-0.4,1.5-0.7,3-0.6,3.3c0.1,0.2,0.2,0.2,0.5,0.1s0.4-0.1,0.5,0
	c0.2,0.3,0.1,0.3-0.6,0.6c-0.9,0.3-1.3,0.2-1.5-0.2l-0.1-0.3L79.3,73C78.5,73.4,77.4,73.6,76.7,73.5L76.7,73.5z M78.7,72.5
	c0.3-0.2,0.7-0.4,0.8-0.5c0.2-0.2,0.6-1.9,0.8-2.8c0.1-0.4,0.1-0.4-0.4-0.5c-0.8-0.2-1.6,0.3-2.2,1.5c-0.7,1.2-0.8,2.3-0.4,2.6
	C77.7,72.9,77.9,72.9,78.7,72.5L78.7,72.5z M134.6,73.5c-0.5-0.1-0.7-0.3-0.9-0.8c-0.2-0.8,0.3-2.2,1.2-3.3c1-1.3,2.2-1.7,3.9-1.4
	c0.4,0.1,0.9,0.2,0.9,0.2c0.1,0-0.1,0.7-0.3,1.6c-0.2,0.8-0.4,1.8-0.4,2.2v0.7h0.5c0.4,0,0.5,0,0.5,0.2s-0.1,0.3-0.7,0.4
	c-0.9,0.3-1.4,0.2-1.4-0.2c0-0.2-0.1-0.3-0.1-0.3s-0.3,0.1-0.7,0.3c-0.6,0.2-1.7,0.5-1.9,0.5C135.1,73.6,134.9,73.5,134.6,73.5
	L134.6,73.5z M136.6,72.5c0.3-0.1,0.6-0.3,0.7-0.4c0.3-0.3,0.7-1.7,1-3c0.1-0.3,0.1-0.4-0.4-0.5c-0.4-0.1-0.5-0.1-0.9,0.1
	c-0.8,0.3-1.5,1.4-1.9,2.8C134.8,72.9,135.3,73.2,136.6,72.5L136.6,72.5z M8.6,73.2c0-0.1,0.2-1.2,0.5-2.3c0.6-2.2,0.6-2.4-0.1-2.2
	c-0.3,0.1-0.3,0.1-0.3-0.2c0-0.2,0.1-0.3,0.7-0.4c0.4-0.1,0.9-0.2,1.1-0.2c0.4,0,0.4,0,0.4,0.3c0,0.2-0.2,1.2-0.4,2.2
	c-0.3,1-0.5,1.9-0.4,2s0.2,0.2,0.6,0.1c0.5-0.1,0.5-0.1,0.5,0.2c0,0.2-0.2,0.3-0.7,0.4c-0.4,0.1-0.9,0.2-1.2,0.2
	C8.7,73.5,8.6,73.4,8.6,73.2L8.6,73.2z M13.1,73.3l-0.3-0.2l0.9-3.7c0.5-2.1,0.9-3.9,0.9-4.1c0-0.3-0.1-0.3-0.5-0.2
	c-0.2,0.1-0.3,0-0.3-0.2c0-0.3,0.4-0.5,1.6-0.6c0.7-0.1,0.7-0.1,0.7,0.2c0,0.1-0.2,1.1-0.4,2c-0.2,1-0.4,1.8-0.4,1.9
	s0.1,0.1,0.5-0.1c1.3-0.5,2.5-0.5,2.9,0.1s0.2,2-0.4,3.1c-0.3,0.6-1.3,1.6-1.8,1.8C15.7,73.6,13.5,73.6,13.1,73.3L13.1,73.3z
	 M16.1,72.6c0.6-0.4,1.3-1.7,1.4-2.9c0.2-1.2-0.6-1.4-2-0.6c-0.3,0.2-0.5,0.4-0.6,0.7c-0.2,0.5-0.6,2.3-0.6,2.6
	C14.3,73,15.4,73,16.1,72.6L16.1,72.6z M20.6,73.1c-0.3-0.3-0.3-0.4-0.3-1.1c0-1.9,1.1-3.5,2.7-4c0.8-0.2,1.5-0.2,1.9,0.2
	c0.3,0.2,0.3,0.3,0.3,0.8c0,1.1-1.1,2-2.7,2.1c-0.5,0-0.9,0.1-0.9,0.2c-0.1,0.2-0.1,0.8,0,1.1c0.3,0.5,0.7,0.5,1.7,0.1
	c0.6-0.3,0.8-0.3,0.9-0.2c0.2,0.3,0.1,0.4-0.8,0.8c-0.8,0.3-1,0.4-1.7,0.4S20.9,73.4,20.6,73.1L20.6,73.1z M22.7,70.5
	c1-0.3,1.7-1.3,1.2-1.7c-0.3-0.3-0.6-0.3-1,0c-0.3,0.3-0.9,1.1-1,1.6c-0.1,0.2,0,0.2,0.2,0.2C22.2,70.6,22.5,70.5,22.7,70.5
	L22.7,70.5z M26.7,73.4c0,0,0.2-0.9,0.5-1.9s0.5-2.1,0.5-2.3v-0.5l-0.5,0.1c-0.4,0.1-0.5,0-0.5-0.2s0.4-0.4,1.3-0.6
	c0.7-0.2,0.9,0,0.9,0.4v0.3l0.4-0.3c0.7-0.5,1.2-0.6,1.7-0.3c0.3,0.1,0.5,0.3,0.4,0.3c-0.3,1.1-0.5,1.4-0.8,1.4
	c-0.2,0-0.3-0.1-0.3-0.4c0-0.8-0.7-0.8-1.3,0c-0.3,0.5-0.7,1.6-1,3.1c-0.1,0.4-0.2,0.8-0.3,0.8C27.8,73.4,26.7,73.5,26.7,73.4
	L26.7,73.4z M32.6,73.3c-0.1-0.1-0.1-0.5,0.6-3.4l0.3-1.2h-0.4c-0.2,0-0.4,0-0.4-0.1c0-0.2,0.3-0.5,0.4-0.5c0.3,0,0.8-0.5,1.1-1
	s0.4-0.6,0.8-0.6c0.3,0,0.3,0,0.2,0.4c0,0.2-0.1,0.6-0.2,0.8l0,0.4h0.5c0.6,0,0.6,0.1,0.5,0.5c0,0.1-0.2,0.2-0.6,0.2
	c-0.7,0-0.5-0.2-1.1,2.2c-0.4,1.8-0.4,1.9,0.3,1.8c0.5-0.1,0.6-0.1,0.5,0.2c0,0.2-0.2,0.3-0.6,0.4C33.8,73.5,32.8,73.6,32.6,73.3
	L32.6,73.3z M37.4,73.2c-0.9-0.9-0.2-3.3,1.1-4.5c0.6-0.5,1.4-0.8,2-0.8c0.4,0,1.2,0.3,1.3,0.6c0.2,0.3,0.1,1.1-0.1,1.5
	c-0.5,0.8-1.6,1.3-2.7,1.3h-0.7v0.6c0,1.1,0.5,1.3,1.8,0.7c0.4-0.2,0.8-0.3,0.8-0.3s0.1,0.2,0.1,0.3c0,0.2-0.1,0.3-0.8,0.6
	c-0.8,0.4-1,0.4-1.7,0.4C37.8,73.5,37.7,73.5,37.4,73.2L37.4,73.2z M39.5,70.5c0.6-0.2,1.1-0.5,1.3-0.9c0.2-0.3,0.2-0.4,0-0.7
	c-0.3-0.4-0.6-0.4-1.1,0c-0.4,0.3-1,1.3-1,1.6C38.5,70.7,39,70.7,39.5,70.5z M83.8,73.4c-0.2-0.2-0.1-0.8,0.5-3
	c0.8-3,1.2-4.8,1.2-5.1c0-0.2-0.1-0.2-0.4-0.2c-0.4,0.1-0.4,0-0.4-0.2c0-0.3,0.3-0.4,1.5-0.6c0.6-0.1,0.8,0,0.8,0.3
	c0,0.2-0.4,1.9-0.9,3.9s-0.9,3.7-0.9,3.9v0.4l0.5-0.1c0.5-0.1,0.5-0.1,0.5,0.2c0,0.2-0.2,0.3-0.7,0.4C84.9,73.5,84,73.6,83.8,73.4
	L83.8,73.4z M88.3,73.4c-0.1-0.2-0.1-0.7,0.4-2.5c0.3-0.9,0.5-1.8,0.4-1.9c-0.1-0.2-0.1-0.2-0.6-0.1c-0.3,0.1-0.3,0-0.3-0.2
	c0-0.3,0.5-0.5,1.4-0.7c0.7-0.1,0.9-0.1,0.9,0.2c0,0.1-0.2,1.1-0.5,2.2s-0.5,2.1-0.4,2.2s0.3,0.1,0.6,0.1c0.5-0.1,0.5-0.1,0.5,0.2
	c0,0.2-0.2,0.3-0.7,0.4C89.3,73.5,88.4,73.6,88.3,73.4L88.3,73.4z M92.6,73.3c0-0.1,0-0.5,0.1-0.8c0.3-1.1,0.8-3.6,0.8-3.7
	c0,0-0.2-0.1-0.4-0.1c-0.5,0-0.4-0.3,0.2-0.6c0.4-0.2,0.6-0.4,0.9-0.9c0.3-0.6,0.4-0.7,0.7-0.7h0.3L95,67.2c0,0.5,0,0.8,0,0.8
	s0.3,0.1,0.6,0.1c0.6,0,0.6,0,0.5,0.4c-0.1,0.2-0.2,0.3-0.7,0.3h-0.6l-0.4,1.8c-0.2,1-0.4,1.9-0.3,2s0.2,0.2,0.5,0.1
	c0.5-0.1,0.6-0.1,0.6,0.2c0,0.2-0.1,0.3-0.7,0.4C93.5,73.6,92.8,73.6,92.6,73.3L92.6,73.3z M97.5,73.2c-0.3-0.2-0.3-0.4-0.4-1
	c-0.1-1.4,0.6-2.9,1.6-3.7c1.1-0.8,2.3-0.9,3-0.3c0.3,0.3,0.3,0.4,0.3,0.9c-0.1,1.1-1.2,1.9-2.8,1.9c-1,0.1-1.1,0.2-0.9,0.9
	c0.2,0.8,0.6,0.9,1.8,0.4c0.8-0.3,1-0.3,1,0s-1.4,0.9-2.4,1C97.9,73.5,97.8,73.5,97.5,73.2L97.5,73.2z M100,70.3
	c0.7-0.3,1.1-1.1,0.6-1.6s-1.5,0.2-2,1.4l-0.2,0.5l0.5-0.1C99.3,70.6,99.8,70.4,100,70.3L100,70.3z M128.2,73.5c0,0,0.2-0.9,0.5-1.9
	s0.5-2.1,0.5-2.3v-0.5l-0.5,0.1c-0.4,0.1-0.5,0.1-0.5-0.2c0-0.3,0.2-0.4,1.2-0.6c0.8-0.2,1.1-0.1,1.1,0.3v0.3l0.4-0.3
	c0.7-0.5,1.2-0.6,1.7-0.3c0.3,0.1,0.5,0.2,0.5,0.3c0,0-0.1,0.4-0.3,0.8c-0.2,0.6-0.3,0.7-0.5,0.7s-0.3-0.1-0.3-0.4
	c0-0.8-0.7-0.8-1.2-0.1c-0.4,0.5-0.6,1.1-0.9,2.7c-0.1,0.7-0.3,1.3-0.3,1.3C129.5,73.4,128.3,73.5,128.2,73.5L128.2,73.5z
	 M141.9,73.3c-0.1-0.2,0-0.9,0.5-2.8l0.4-1.7h-0.3c-0.4,0-0.5-0.4-0.1-0.5s0.9-0.6,1.1-1.1c0.3-0.5,0.4-0.6,0.8-0.6
	c0.3,0,0.3,0,0.2,0.4c0,0.2-0.1,0.6-0.1,0.8l-0.1,0.4h0.6c0.6,0,0.6,0.1,0.5,0.5c-0.1,0.1-0.2,0.2-0.6,0.2c-0.6,0-0.6-0.2-1.1,2.2
	c-0.4,1.8-0.4,1.9,0.3,1.8c0.5-0.1,0.6-0.1,0.5,0.2c0,0.2-0.2,0.3-0.6,0.4C142.9,73.6,142,73.6,141.9,73.3L141.9,73.3z M146.6,73.2
	c-0.9-0.8-0.3-3.3,1.1-4.5c0.6-0.5,1.4-0.8,2-0.8c0.4,0,1.2,0.3,1.3,0.6c0.2,0.3,0.1,1.1-0.1,1.5c-0.5,0.8-1.6,1.3-2.8,1.3h-0.7
	l0.1,0.7c0.1,1.1,0.5,1.2,1.8,0.6c0.4-0.2,0.8-0.3,0.8-0.3s0.1,0.2,0.1,0.3c0,0.2-0.1,0.3-0.8,0.6c-0.8,0.4-1,0.4-1.7,0.4
	C147.1,73.5,146.9,73.5,146.6,73.2L146.6,73.2z M149.1,70.4c0.8-0.4,1.2-1.3,0.7-1.6c-0.3-0.2-0.6-0.2-1,0.2c-0.4,0.3-1,1.3-1,1.7
	C147.7,70.7,148.5,70.6,149.1,70.4L149.1,70.4z M152.7,73.4c0-0.1,0.2-0.9,0.5-2c0.3-1,0.5-2.1,0.4-2.2c0-0.3-0.1-0.3-0.5-0.3
	c-0.3,0-0.4,0-0.5-0.2c0-0.2,0.1-0.3,0.6-0.4c0.3-0.1,0.8-0.2,1.1-0.3c0.5-0.1,0.4-0.1,0.7,0.6c0,0,0.3-0.1,0.7-0.3
	c0.8-0.4,0.9-0.4,1.4-0.1l0.4,0.2l-0.3,0.7c-0.2,0.6-0.3,0.7-0.5,0.7s-0.3-0.1-0.3-0.4c0-1-1-0.8-1.5,0.3c-0.1,0.3-0.4,1.2-0.6,2
	s-0.4,1.6-0.4,1.6C153.9,73.4,152.7,73.5,152.7,73.4L152.7,73.4z M158.6,73.4c0-0.1,0.2-0.8,0.4-1.6c0.3-0.9,0.4-1.8,0.4-2.3v-0.8
	H159c-0.3,0-0.4,0-0.5-0.2s0.1-0.2,0.5-0.4c1.1-0.3,1.3-0.3,1.5-0.1c0.1,0.1,0.2,0.3,0.2,0.4s0,0.3,0.1,0.3c0,0,0.4-0.2,0.8-0.3
	c0.9-0.4,2.2-0.6,2.6-0.4c0.2,0.1,0.3,0.2,0.2,0.7c-0.1,0.3-0.2,1.2-0.4,1.9s-0.4,1.5-0.4,1.7c0,0.4,0,0.4,0.5,0.4
	c0.3,0,0.5,0,0.6,0.2s0,0.3-0.8,0.5s-1.6,0.2-1.7,0c0-0.1,0.1-1.1,0.4-2.1c0.5-2.2,0.6-2.4,0.3-2.5s-1.2,0.3-1.7,0.8
	c-0.4,0.4-0.5,0.5-0.8,1.6c-0.2,0.7-0.3,1.4-0.4,1.7c-0.1,0.3-0.1,0.6-0.2,0.6C159.5,73.4,158.6,73.5,158.6,73.4L158.6,73.4z
	 M166.7,73.3c0-0.1,0.2-1.1,0.5-2.3c0.3-1.1,0.5-2.1,0.5-2.2s-0.1-0.1-0.4,0c-0.2,0.1-0.4,0.1-0.4,0.1s0-0.1,0-0.3
	c0-0.2,0.1-0.3,0.6-0.4c1.4-0.4,1.8-0.3,1.7,0.3c0,0.2-0.3,1.1-0.5,2.1s-0.4,1.9-0.4,2c0.1,0.1,0.2,0.2,0.6,0.1
	c0.5-0.1,0.5-0.1,0.5,0.2C169.1,73.4,166.9,73.8,166.7,73.3L166.7,73.3z M171.2,73.3c-0.1-0.2,0-0.7,0.5-2.6
	c0.5-2.1,0.5-1.9,0.1-1.9c-0.5,0-0.4-0.3,0.2-0.6c0.4-0.2,0.6-0.4,0.8-0.9c0.3-0.5,0.4-0.7,0.7-0.7c0.4,0,0.4,0,0.1,1.2l-0.1,0.4
	h0.6c0.5,0,0.6,0,0.6,0.2c0,0.1-0.1,0.3-0.1,0.3c0,0.1-0.2,0.2-0.6,0.2h-0.6l-0.4,1.8c-0.2,1-0.4,1.9-0.3,2c0.1,0.2,0.1,0.2,0.5,0.1
	c0.5-0.1,0.6-0.1,0.6,0.2c0,0.2-0.1,0.3-0.7,0.4C172.1,73.6,171.3,73.6,171.2,73.3L171.2,73.3z M176,73.3c-0.3-0.3-0.3-0.3-0.3-1.4
	c0-1,0-1.1,0.4-1.9c0.5-1,1.1-1.5,2.1-1.8c1.7-0.6,2.9,0.4,2.1,1.8c-0.4,0.8-1.5,1.3-2.7,1.3c-0.7,0-0.7,0-0.8,0.3
	c-0.1,0.4,0,0.9,0.3,1.2c0.3,0.3,0.7,0.2,1.6-0.2c0.6-0.3,0.8-0.3,0.8-0.2c0.2,0.3,0.1,0.4-0.7,0.8c-0.6,0.3-1,0.4-1.6,0.4
	C176.5,73.5,176.4,73.5,176,73.3L176,73.3z M178.6,70.3c0.8-0.4,1.1-1.2,0.5-1.6c-0.2-0.1-0.4-0.2-0.6-0.1c-0.4,0.1-1,0.8-1.3,1.5
	l-0.2,0.5l0.6-0.1C177.9,70.6,178.4,70.4,178.6,70.3L178.6,70.3z M0,73.2C0,73.1,0.1,73,0.3,73c0.3-0.1,0.6-0.3,0.9-0.8
	C1.5,71.5,2.5,67,2.5,66c0-0.8,0-0.8-0.4-1c-0.7-0.4-0.5-0.5,1.5-0.5c1.6,0,1.9,0,1.9,0.2c0,0.1-0.2,0.2-0.4,0.2
	c-0.8,0.1-1,0.8-1.8,4.2c-0.7,3.2-0.7,3.1-0.4,3.4c0.2,0.2,0.3,0.2,1.3,0.2c1.2-0.1,1.7-0.3,2.1-0.9c0.3-0.5,0.4-0.5,0.6-0.4
	C7,71.5,7,71.6,6.9,72c-0.1,0.3-0.3,0.7-0.5,1l-0.3,0.4H2.9C0.2,73.4,0,73.4,0,73.2L0,73.2z M59.7,73.2c0-0.1,0.2-0.2,0.5-0.4
	c0.3-0.1,0.5-0.3,0.7-0.7c0.3-0.6,1.4-5.3,1.4-6.3c0-0.7,0-0.8-0.4-1c-0.8-0.5-0.6-0.5,3-0.5c3.3,0,3.4,0,3.3,0.2
	c0,0.1-0.1,0.6-0.2,1c-0.1,0.6-0.2,0.8-0.4,0.8c-0.2,0-0.3,0-0.3-0.3c0-0.7-0.5-0.9-2.1-0.9h-1.1l-0.3,1.4c-0.2,0.8-0.3,1.5-0.4,1.6
	c0,0.2,0,0.2,1,0.2c1.2,0,1.5-0.1,1.9-0.6c0.3-0.5,0.7-0.5,0.6-0.1l-0.3,1.3c-0.2,0.8-0.3,1-0.4,1s-0.2-0.1-0.3-0.3
	c0-0.2-0.2-0.4-0.3-0.5c-0.3-0.1-2.1-0.2-2.3-0.1c-0.1,0.1-0.4,1.7-0.6,2.6c-0.1,0.5,0,0.5,0.2,0.7s0.5,0.2,1.3,0.1
	c1.2-0.1,1.7-0.2,2.2-0.9c0.2-0.3,0.4-0.5,0.5-0.4c0.2,0.1,0.2,0.3-0.1,1.1c-0.5,1.2-0.2,1.1-3.8,1.1C60.3,73.3,59.8,73.3,59.7,73.2
	L59.7,73.2z M119.7,73.2c0-0.1,0.2-0.2,0.4-0.3c0.8-0.2,1-0.9,1.7-4.4c0.6-3.1,0.6-3.6-0.1-3.8c-0.1,0-0.2-0.1-0.2-0.2
	s1-0.1,3.3-0.2c3.2,0,3.3,0,3.2,0.2c0,0.1-0.1,0.6-0.2,1c-0.1,0.6-0.2,0.8-0.4,0.8s-0.3,0-0.3-0.3c0-0.7-0.6-0.9-2.2-0.9H124
	l-0.3,1.4c-0.2,0.8-0.3,1.5-0.3,1.6c0,0.2,1.8,0.2,2.2,0c0.2-0.1,0.4-0.3,0.5-0.5s0.2-0.3,0.4-0.3c0.3,0,0.3-0.1,0,1.4
	c-0.2,1-0.3,1.2-0.5,1.2c-0.1,0-0.2-0.1-0.2-0.2c0-0.5-1.1-0.9-2.1-0.7l-0.4,0.1l-0.2,1.2c-0.4,2.2-0.4,2.4,0.2,2.6
	c0.7,0.3,0.3,0.4-1.6,0.4C120.1,73.3,119.8,73.3,119.7,73.2L119.7,73.2z M50.5,70.9c-0.5-0.2-1-0.9-1-1.5c0-0.9,0.8-1.7,1.8-1.7
	c1.1,0,1.8,0.6,1.8,1.6C53,70.7,51.8,71.4,50.5,70.9L50.5,70.9z M110.6,70.9c-0.2-0.1-0.5-0.3-0.7-0.6c-0.3-0.3-0.3-0.5-0.3-1
	c0-1,0.7-1.6,1.8-1.6c0.5,0,0.7,0.1,1.1,0.3c0.8,0.6,0.9,1.6,0.3,2.3C112.2,71,111.3,71.2,110.6,70.9L110.6,70.9z M40,67
	c-0.2-0.2-0.3-0.2,1.1-1.6l0.5-0.5l0.7,0.1c0.4,0.1,0.7,0.2,0.7,0.2c0,0.1-2.5,2-2.6,2C40.2,67.2,40.1,67.1,40,67L40,67z M100,67
	l-0.3-0.2l0.9-0.9c0.5-0.5,0.9-0.9,1-0.9c0.3,0,1.3,0.3,1.3,0.3c0,0.1-2.2,1.7-2.5,1.9C100.3,67.2,100.2,67.1,100,67L100,67z
	 M178.5,67l-0.3-0.2l0.9-0.9c0.5-0.5,1-0.9,1-0.9c0.2,0,1.3,0.3,1.3,0.3c0,0.1-2.2,1.7-2.5,1.9C178.9,67.2,178.7,67.1,178.5,67
	L178.5,67z M10,66.4c-0.5-0.4,0-1.3,0.7-1.3c0.5,0,0.8,0.2,0.8,0.7C11.5,66.6,10.6,67,10,66.4L10,66.4z M89.7,66.5
	c-0.3-0.2-0.3-0.9,0-1.2c0.5-0.4,1.4-0.2,1.4,0.5S90.3,66.9,89.7,66.5L89.7,66.5z M168.1,66.4c-0.5-0.5,0-1.3,0.7-1.3
	s1.1,0.8,0.5,1.3C169,66.7,168.4,66.8,168.1,66.4L168.1,66.4z M64.7,63.3c-0.2-0.2-0.1-0.3,0.7-1.1l0.9-0.9l0.7,0.2
	c0.4,0.1,0.7,0.2,0.7,0.2c0,0.1-2.4,1.8-2.6,1.8C64.9,63.5,64.8,63.4,64.7,63.3L64.7,63.3z"/>
<path class="st0" d="M103.9,57.1l0.3-0.7c0.5-1.2,0.9-2.1,1.7-3.1c0.7-1.1,2.4-2.6,3-2.9c0.8-0.4,1.9-0.5,3.2-0.4
	c1.1,0.1,4.5,0.6,5.8,0.9c1,0.2,2.6,0.2,3.3,0c1.4-0.4,2.2-1.1,2.6-2.3c0.3-0.9,0.3-1.7,0-2.3c-0.4-0.7-0.3-0.9,0.7-1.8
	c0.5-0.4,0.9-0.8,0.9-0.9c0-0.3-0.7-1.5-0.8-1.5c-0.1,0-0.3-0.1-0.5-0.2l-0.3-0.2l0.6-0.3c0.8-0.4,1.4-1,1.4-1.4
	c0-0.2-0.2-0.6-0.4-1c-0.4-0.7-0.5-1.3-0.3-1.7c0.1-0.3,0.4-0.4,1.6-0.7c1-0.3,1.4-0.6,1.6-1.2c0.1-0.5,0.1-0.9-0.3-1.5
	c-0.3-0.5-2.1-3.1-2.6-3.7c-0.7-0.9-1.6-2.3-1.8-3.1c-0.3-0.8-0.3-0.8-0.1-1.8c0.4-2.1,0.2-3.9-0.9-7.3c-0.8-2.6-1.1-3.2-1.3-3.7
	c-0.5-0.9-0.4-1.1,0.6-1.8c0.5-0.4,0.9-0.7,0.9-0.8c0.3-0.5,0-1.5-0.6-1.7c-0.3-0.2-0.5-0.1-0.9,0.6c-0.3,0.5-0.4,0.5-0.7,0.5
	c-0.5,0-0.6-0.2-0.3-0.6c0.3-0.4,0.3-0.5-0.2-0.6c-0.4-0.1-0.6-0.2-1.5-1c-1.2-1.1-2-1.6-3.6-2.3c-0.7-0.3-1-0.5-0.7-0.4
	c0.2,0,1,0.1,1.8,0.1c2.2,0.1,2.7-0.2,3.2-1.6c0.3-1,0.5-1.5-0.3-2.2L116.1,0h65.5v57.1H103.9z"/>
<path class="st0" d="M48.1,57.1c-0.5,0-0.9-0.1-0.9-0.1s0.5-0.4,2.9-1.8c0.8-0.4,1.1-0.7,1-0.7s-0.8-0.1-1.5-0.2
	c-1.1-0.1-1.4,0-1.8,0.1c-0.2,0.1-1.1,0.3-2,0.6c-2.1,0.5-2.8,0.9-3.5,1.8L42,57.1H0V0h83.4l-1.6,1c-0.9,0.4-1.9,1-2.3,1.3
	c-1.3,1-3,3.2-3.4,4.4c-0.2,0.4-0.3,0.6-0.8,0.9C74.6,8,73.7,8.9,73,9.9c-1,1.4-2.9,4.5-3.3,5.3c-0.6,1.3-0.5,2.3,0.3,6.3
	c0.4,1.8,0.8,3.5,0.9,4s0.3,1.1,0.3,1.6c0.1,0.8,0.1,1,0.6,2c0.1,0.3,0.3,0.6,0.3,0.7s0.1,0.3,0.2,0.3c0.1,0.1,0.2,0.3,0.2,0.4
	c0,0.2,0.3,0.6,0.9,1.2c1.3,1.4,2.3,2.7,2.3,3.1c0,0.3-0.5,0.4-1.4,0.2c-1-0.2-1.8-0.7-3.1-1.9c-0.5-0.5-1-0.8-1-0.7s0.4,0.5,0.8,1
	c0.9,0.9,1,1.2,0.8,1.5s-0.6,0.4-1.1,0.2c-0.7-0.2-1,0.1-0.9,0.6c0.1,0.3,0.1,0.3-0.1,0.3c-0.4-0.1-1.2-0.3-1.9-0.3
	c-0.7-0.1-0.7-0.1-1.1-0.6c-0.3-0.4-0.5-0.6-0.8-0.7c-1.2-0.3-4.1-0.8-6-1c-3.4-0.3-4.3-0.4-5.9-0.2c-1.3,0.1-1.6,0.2-2.3,0.5
	c-1.2,0.6-3.4,2.4-3.4,2.9c0,0.2,0.5,0.2,1-0.2c1.6-0.9,7.2-2.3,9.9-2.3c1.3,0,1.3,0-0.3,0.3c-0.5,0.1-1.5,0.3-2.4,0.6
	c-0.8,0.2-2.3,0.6-3.3,0.8c-0.9,0.2-2,0.5-2.4,0.6l-0.7,0.2h1c5.1,0,10.9,1.6,13.3,3.5c1,0.8,1.4,0.9,2.9,0.8c2.1-0.2,4.7-1.1,5.9-2
	c0.5-0.4,0.9-0.5,0.9-0.3c0,0.4-0.7,2.3-1,2.8c-0.1,0.4-0.1,0.5,0,0.6s0.2,0.2,0.1,0.2c0,0,0,0.1,0.2,0.1c0.4,0.1,0.3,0.2-0.3,0.4
	c-0.6,0.2-1.1,0.4-1.1,0.6c0,0.1,0.1,0.1,0.2,0.1c0.3,0,0.1,0.2-0.3,0.3c-0.3,0.1-0.3,0.1-0.2,0.2s0.1,0.1,0,0.1s-0.2,0.1-0.2,0.3
	s-0.1,0.3-0.4,0.4c-0.6,0.3-0.4,0.4,0.4,0.3c0.4,0,0.7,0,0.6,0s-0.8,0.3-1.5,0.6s-1.7,0.7-2.1,0.8c-0.5,0.2-0.8,0.3-0.8,0.4
	c0,0.2,0.2,0.2,0.7,0c0.1,0,0.2,0,0.2,0s-1.2,0.7-2.7,1.5S63,49.8,62.8,50c-0.2,0.2-0.5,0.4-0.6,0.4s-0.3,0.1-0.4,0.3
	c-0.2,0.5-0.2,0.5,0.4,0.4c0.8-0.1,1.2-0.1,1.2,0s0,0.1-0.2,0.1s-0.3,0.1-0.4,0.2c-0.1,0.1-0.3,0.2-0.5,0.2s-0.4,0.2-0.6,0.4
	c-0.1,0.2-0.3,0.4-0.5,0.4s0.1,0,0.4,0c5.3-0.4,6.3-0.5,8.4-1.6c1.8-0.9,3.7-2.2,5.1-3.4c0.4-0.4,0.8-0.7,0.8-0.7
	c0.2,0,0.1,0.6-0.2,1.2c-0.5,0.9-1.4,1.8-3.5,3c-1,0.6-2.1,1.2-2.4,1.3c-1,0.3-2.7,0.6-4.4,0.8c-5.6,0.8-7.7,1.3-9.9,2.6
	c-0.4,0.2-0.7,0.4-0.8,0.4s-0.4,0.1-0.6,0.3c-0.6,0.5-0.2,0.4,1.2-0.2c1.4-0.7,2-0.8,0.9-0.2c-1.3,0.7-2.3,1.2-3.3,1.2H48.1
	L48.1,57.1z M41.1,50.7c0.2-0.1,0.9-0.5,1.6-0.8c0.6-0.4,1.4-0.8,1.7-0.9l1.8-0.8c1.5-0.6,3.7-1.2,3.8-1c0,0.1,0.4,0.1,0.7,0.2
	c0.5,0,0.6,0.1,0.4,0.1c-0.1,0-0.3,0.1-0.3,0.2c0,0.2,1.1,0.1,1.6-0.1c0.2-0.1,0.6-0.2,0.9-0.2c0.4,0,0.6-0.1,0.6-0.2
	c0-0.1,0.1-0.2,0.5-0.1c0.5,0.1,1.6-0.1,4.4-0.8c1.9-0.5,3.4-0.9,4.7-1.5l0.9-0.4l-0.9-0.6c-2.3-1.4-4.6-2.2-9.6-3.5
	c-0.9-0.2-1.6-0.5-1.7-0.5c-0.1-0.1,0-0.1,0.1,0c0.5,0.2,0.9,0.2,0.9,0.1c0-0.2-0.4-0.3-1.1-0.4c-0.7-0.1-1.1-0.3-0.7-0.3
	c0.7,0-0.5-0.4-1.9-0.7c-1-0.2-1.1-0.2-0.7-0.4c0.4-0.2,0.8-0.8,0.7-1.1c-0.1-0.2-0.2-0.2-0.8,0.2c-1.1,0.7-2.1,1.8-2.7,3
	c-0.3,0.7-0.2,0.7,1.4,0.8c1.4,0,1.4,0.1,1,0.2c-0.2,0.1-0.6,0.2-0.9,0.3c-1,0.1-1.5,0.6-1,0.8c0.1,0.1,0.1,0.1-0.3,0.3
	c-0.4,0.2-0.4,0.2-0.2,0.3c0.1,0.1,0.5,0.1,0.8,0.1c0.4,0,0.6,0,0.8,0.2l0.3,0.2l-0.5,0.3c-0.3,0.2-0.6,0.5-0.7,0.7s-0.5,0.7-0.9,1
	c-0.4,0.4-0.7,0.8-0.7,0.8c0,0.1-0.5,0.6-1.2,1.1c-1.8,1.3-2.6,2.1-2.6,2.4c0,0.2-0.1,0.3-0.3,0.5c-0.6,0.3-0.8,0.7-0.5,0.7
	C40.7,50.8,40.9,50.7,41.1,50.7L41.1,50.7z M54.9,49.5c0.4-0.1,1-0.2,1.1-0.3l0.3-0.2l-0.6-0.3l-0.6-0.3l-0.6,0.2
	c-0.3,0.1-0.7,0.3-1,0.4c-0.9,0.3-1,0.7-0.2,0.6C53.9,49.6,54.5,49.5,54.9,49.5L54.9,49.5z M34.9,44.5c2.6-2.6,4.5-4.1,6.8-5.6
	c0.8-0.5,1.4-0.8,1.4-0.7c0.1,0.2,0.4,0.2,1-0.2s1-0.8,1.8-2.1c0.8-1.4,1.1-1.8,2.3-2.6c0.6-0.4,1.4-1,1.8-1.3
	c0.7-0.5,0.8-0.6,0.8-0.4c0,0.1,0,0.2,0.1,0.2c0.3,0,1.5-0.5,1.6-0.6c0.1-0.2-1.2-0.4-2.2-0.3c-0.7,0-1,0.1-1.9,0.6
	c-2.1,1.1-3.7,2.2-6.6,4.9c-2.1,2-3.8,3.3-4.6,3.7c-0.3,0.1-0.5,0.4-0.8,1c-0.6,1.2-1.8,3-2.9,4.4c-1,1.3-1.3,1.8-0.5,0.9
	C33.4,46,34.2,45.1,34.9,44.5L34.9,44.5z M61.3,56.5c3.2-0.6,3.5-0.7,5.7-0.7c2.5-0.1,2.8-0.2,4.3-0.8c0.5-0.2,0.7-0.2,0.7-0.2
	c0.1,0.2,0.9-0.2,2.5-1.3c0.7-0.4,1.6-1,2-1.2c0.7-0.4,0.9-0.4,1.3-0.4c0.4,0.1,0.5,0,0.9-0.4c1.3-1.1,2.4-1.6,3.5-1.6
	c0.3,0,0.4,0,0.4,0.2c0,0.1,0.1,0.2,0.2,0.1c0.3-0.1,0.2,0-0.7,0.6c-1,0.7-0.9,0.9,0.1,0.2c1-0.6,1-0.6,1-0.4c0,0.1-0.4,0.5-1,1
	c-1.5,1.2-2.6,2.2-4.3,3.8l-1.5,1.5H57.9L61.3,56.5L61.3,56.5z M61.3,34.1c0.1,0,0.3,0,0.4,0c0.1,0,0,0-0.2,0
	C61.3,34.2,61.2,34.1,61.3,34.1z"/>
<path class="st0" d="M116.4,29.9c-0.5-0.1-0.3-0.3,0.4-0.3c0.6,0,1-0.2,1-0.6c0-0.2,0-0.2-0.2-0.2s-0.3,0-0.4-0.1s-0.4-0.2-0.7-0.3
	c-0.7-0.1-1.8-0.7-1.6-0.9c0.1-0.1,0.4-0.1,0.8-0.2c0.6,0,0.7-0.1,0.8-0.4c0.1-0.3,0.2-0.4,0.4-0.4c0.2,0,0.4-0.2,0.6-0.3
	c0.2-0.1,0.7-0.5,1.2-0.8c0.8-0.5,1.3-1,1.2-1.2c-0.2-0.2-2-0.4-2.8-0.3c-1,0.1-2.6,0.4-3.3,0.6c-0.7,0.3-0.5,0,0.5-0.5
	c1.3-0.7,3.9-1.4,5.3-1.4c0.6,0,2.4,0.4,2.6,0.6c0.4,0.3,0,1.5-0.8,2.1l-0.3,0.2l0.3,0.3l0.3,0.3l-0.3,0.2c-0.2,0.1-0.4,0.2-0.5,0.2
	s-0.4,0.1-0.6,0.3c-0.3,0.3-0.4,0.4-0.3,0.6s0.1,0.3,0,0.5c-0.1,0.1-0.1,0.5-0.1,0.8c0.1,0.7,0,1-0.6,1.1
	C118.6,30,117.1,30,116.4,29.9L116.4,29.9z"/>
<g>
	<path class="st0" d="M237.3,61.8h6.4V28.7h-6.4v11.8c-2.3-2.2-5-3.2-8.1-3.2c-6.7,0-12.1,5.1-12.1,12.6c0,7.3,5.7,12.6,12.3,12.6
		c3.2,0,5.7-1.1,7.9-3.2C237.3,59.3,237.3,61.8,237.3,61.8z M230.5,42.8c4.1,0,7.1,2.8,7.1,7c0,4.4-3.1,7.2-7.1,7.2s-6.9-3-6.9-7.1
		C223.6,46,226.2,42.8,230.5,42.8L230.5,42.8z M269.3,61.8h6.4V37.9h-6.4v2.6c-2.3-2.2-5-3.2-8.1-3.2c-6.7,0-12.1,5.1-12.1,12.6
		c0,7.3,5.7,12.6,12.3,12.6c3.3,0,5.7-1.1,8-3.2L269.3,61.8L269.3,61.8z M262.5,42.8c4.1,0,7.1,2.8,7.1,7c0,4.4-3.1,7.2-7.1,7.2
		s-6.9-3-6.9-7.1C255.5,46,258.2,42.8,262.5,42.8L262.5,42.8z M283,37.9h-3.3V43h3.3v18.8h6.5V43.1h3.8V38h-3.8v-8.8H283V37.9
		L283,37.9z M315.8,61.8h6.4V37.9h-6.4v2.6c-2.3-2.2-5-3.2-8.1-3.2c-6.7,0-12.1,5.1-12.1,12.6c0,7.3,5.7,12.6,12.3,12.6
		c3.2,0,5.7-1.1,7.9-3.2L315.8,61.8L315.8,61.8z M309,42.8c4.1,0,7.1,2.8,7.1,7c0,4.4-3.1,7.2-7.1,7.2s-6.9-3-6.9-7.1
		C302.1,46,304.8,42.8,309,42.8L309,42.8z M332.3,55.6c-2,0-3.7,1.5-3.7,3.4s1.7,3.5,3.7,3.5c2.1,0,3.7-1.6,3.7-3.5
		S334.3,55.6,332.3,55.6z M367.8,37.9h-6.4v2.6c-2.4-2.1-4.9-3.2-8.1-3.2c-6.5,0-12,4.9-12,12.3c0,7.2,5.4,12.3,12.4,12.3
		c3.3,0,5.7-1,7.8-3c0,2.3,0,3.9-1.6,5.2c-1.2,1-3.1,1.6-5.5,1.6c-2.7,0-4.6-0.6-6-2.1h-7.1c1.7,5,6.2,7.6,13.3,7.6
		c3.9,0,7-0.9,9.3-2.7c3-2.3,3.9-5.5,3.9-10.1L367.8,37.9L367.8,37.9z M354.6,42.8c4.3,0,7,3,7,6.8c0,4.1-3,6.7-6.9,6.7
		c-4,0-7.1-2.8-7.1-6.8C347.6,45.9,350.4,42.8,354.6,42.8L354.6,42.8z M386.4,37.3c-7,0-13.3,5.4-13.3,12.6c0,7,5.9,12.6,13.4,12.6
		c7.8,0,13.6-5.7,13.6-12.6C400,42.8,393.9,37.3,386.4,37.3L386.4,37.3z M386.5,43c4.2,0,7.1,2.9,7.1,6.9c0,4.2-3.1,6.9-7.1,6.9
		c-4.2,0-6.9-2.9-6.9-6.9C379.5,45.9,382.4,43,386.5,43z M405.2,48.9c0,2-0.1,3.1,0.2,5c1,5.6,4.8,8.5,11,8.5c3.6,0,6.2-0.9,8.3-3
		c2.7-2.8,3-6,3-10.5v-11h-6.4v12.8c0,4.1-1.4,6.3-4.8,6.3s-4.8-2.3-4.8-6.5V37.9h-6.4L405.2,48.9L405.2,48.9z M442.6,61.8h4.2
		l10.9-23.9h-6.5L444.6,52l-6.5-14.1h-6.6L442.6,61.8L442.6,61.8z"/>
	<path class="st0" d="M463.1,57.1c0.8,0,1.5,0.3,2,0.8c0.6,0.5,0.9,1.1,0.9,1.9c0,0.7-0.3,1.4-0.9,1.9s-1.3,0.8-2,0.8
		c-0.8,0-1.5-0.3-2-0.8s-0.8-1.2-0.8-1.9s0.3-1.4,0.8-1.9C461.6,57.4,462.3,57.1,463.1,57.1L463.1,57.1z M490.1,38.5l-0.5,1.7h-4.2
		l-3.1,11.6c-1.4,5.1-2.8,9-4.2,11.8c-2,3.9-4.1,6.7-6.4,8.2c-1.7,1.1-3.5,1.7-5.2,1.7c-1.1,0-2.1-0.3-2.9-1c-0.6-0.4-0.9-1-0.9-1.7
		c0-0.6,0.2-1.1,0.7-1.5s1.1-0.6,1.8-0.6c0.5,0,0.9,0.2,1.3,0.4c0.3,0.3,0.5,0.6,0.5,1s-0.2,0.7-0.6,1.1c-0.3,0.2-0.4,0.4-0.5,0.6
		c0,0.2,0.1,0.3,0.2,0.4c0.2,0.1,0.4,0.2,0.8,0.2c0.8,0,1.7-0.2,2.6-0.7s1.7-1.2,2.4-2.2c0.7-0.9,1.4-2.3,2-4.1
		c0.3-0.7,1-3.2,2.1-7.3l4.9-17.9h-5l0.4-1.8c1.6,0,2.7-0.1,3.3-0.3c0.6-0.2,1.2-0.6,1.7-1.2c0.5-0.6,1.2-1.7,2-3.2
		c1.1-2.1,2.2-3.8,3.2-4.9c1.4-1.6,2.9-2.7,4.4-3.5c1.6-0.8,3-1.2,4.4-1.2s2.6,0.3,3.5,1s1.3,1.4,1.3,2.2c0,0.6-0.2,1.1-0.6,1.6
		c-0.4,0.4-1,0.6-1.7,0.6c-0.6,0-1.1-0.2-1.5-0.5s-0.5-0.7-0.5-1.1c0-0.3,0.1-0.6,0.4-1c0.2-0.4,0.4-0.7,0.4-0.9
		c0-0.2-0.1-0.4-0.3-0.6c-0.2-0.2-0.6-0.3-1.1-0.3c-1.2,0-2.3,0.4-3.2,1.1c-1.3,0.9-2.4,2.4-3.4,4.4c-0.5,1-1.5,3.6-2.8,7.8
		L490.1,38.5L490.1,38.5z"/>
	<path class="st0" d="M492,39.4l9.8-1.5l-4.1,12.9c3.3-5.3,6.3-9,9.1-11.1c1.5-1.2,2.8-1.8,3.8-1.8c0.6,0,1.1,0.2,1.5,0.5
		c0.4,0.3,0.5,0.8,0.5,1.5c0,1.2-0.3,2.3-1,3.3c-0.5,0.8-1.1,1.2-2,1.2c-0.4,0-0.8-0.1-1.1-0.4c-0.3-0.3-0.5-0.7-0.6-1.2
		c0-0.3-0.1-0.6-0.3-0.7c-0.2-0.1-0.3-0.2-0.5-0.2c-0.3,0-0.6,0.1-0.9,0.2c-0.5,0.2-1.2,0.9-2.3,2.1c-1.6,1.7-3.3,4-5.1,6.7
		c-0.8,1.2-1.5,2.5-2,3.9c-0.8,2-1.3,3.2-1.4,3.6l-0.9,3.3h-4.4l5.3-16.5c0.6-1.9,0.9-3.3,0.9-4.1c0-0.3-0.1-0.6-0.4-0.8
		c-0.4-0.3-0.9-0.4-1.5-0.4c-0.4,0-1.1,0.1-2.2,0.2L492,39.4L492,39.4z"/>
</g>
</svg>
